<svg width="28" height="28" viewBox="0 0 28 28" fill="none" xmlns="http://www.w3.org/2000/svg">
<g clip-path="url(#clip0_33_206)">
<path fill-rule="evenodd" clip-rule="evenodd" d="M21 10.5C20.034 10.5 19.25 11.284 19.25 12.25C19.25 13.216 20.034 14 21 14C21.966 14 22.75 13.216 22.75 12.25C22.75 11.284 21.966 10.5 21 10.5ZM14 22.75C12.978 22.75 11.991 22.631 11.0425 22.4289L6.923 24.9051L6.97813 20.846C3.82026 18.9473 1.75 15.8077 1.75 12.25C1.75 6.45138 7.2345 1.75 14 1.75C20.7655 1.75 26.25 6.45138 26.25 12.25C26.25 18.0495 20.7655 22.75 14 22.75ZM14 0C6.2685 0 0 5.48537 0 12.25C0 16.1166 2.05188 19.5598 5.25 21.8041V28L11.3829 24.2786C12.2316 24.4186 13.1049 24.5 14 24.5C21.7315 24.5 28 19.0155 28 12.25C28 5.48537 21.7315 0 14 0ZM7 10.5C6.034 10.5 5.25 11.284 5.25 12.25C5.25 13.216 6.034 14 7 14C7.966 14 8.75 13.216 8.75 12.25C8.75 11.284 7.966 10.5 7 10.5ZM14 10.5C13.034 10.5 12.25 11.284 12.25 12.25C12.25 13.216 13.034 14 14 14C14.966 14 15.75 13.216 15.75 12.25C15.75 11.284 14.966 10.5 14 10.5Z" fill="#F1D261"/>
</g>
<defs>
<clipPath id="clip0_33_206">
<rect width="28" height="28" fill="white"/>
</clipPath>
</defs>
</svg>
